# xmcd CD database file
#
# Track frame offsets:
#	150
#	65658
#	113890
#	130999
#	135791
#	215649
#
# Disc length: 2892 seconds
#
# Revision: 0
# Processed by: cddbd v1.5.1PL2 Copyright (c) Steve Scherf et al.
# Submitted via: CDex 1.51
#
DISCID=570b4a06
DTITLE=Miles Davis - Duffy's Tavern 1969 (Disc1)
DYEAR=1900
DGENRE=Jazz
TTITLE0=On Green Dolphin Street
TTITLE1=So What
TTITLE2=Nefertiti
TTITLE3=Footprints
TTITLE4=No Blues
TTITLE5=The Theme
EXTD=
EXTT0=
EXTT1=
EXTT2=
EXTT3=
EXTT4=
EXTT5=
PLAYORDER=
